<?xml version="1.0" standalone="no"?>
<!DOCTYPE svg PUBLIC "-//W3C//DTD SVG 20010904//EN"
 "http://www.w3.org/TR/2001/REC-SVG-20010904/DTD/svg10.dtd">
<svg version="1.0" xmlns="http://www.w3.org/2000/svg"
 width="600.000000pt" height="507.000000pt" viewBox="0 0 600.000000 507.000000"
 preserveAspectRatio="xMidYMid meet">

<g transform="translate(0.000000,507.000000) scale(0.100000,-0.100000)"
fill="#000000" stroke="none">
<path d="M3020 4844 c-292 -34 -491 -96 -683 -211 -234 -141 -378 -349 -442
-636 -19 -87 -14 -114 27 -141 36 -24 603 -91 639 -75 35 14 55 44 70 106 51
208 237 343 471 343 129 0 222 -35 295 -111 66 -70 89 -159 99 -396 l7 -142
-24 -5 c-13 -3 -89 -10 -169 -16 -686 -53 -1081 -201 -1314 -491 -78 -98 -146
-231 -175 -343 -47 -179 -47 -424 0 -596 75 -278 277 -479 564 -562 73 -21 99
-23 300 -23 188 1 233 4 311 22 190 44 339 131 509 294 l102 98 54 -77 c68
-97 172 -216 238 -271 62 -52 123 -65 168 -36 30 20 370 312 441 379 81 76 78
95 -40 253 -89 119 -132 225 -148 361 -6 50 -10 381 -10 770 0 734 1 724 -54
912 -29 101 -73 174 -164 271 -150 160 -359 262 -627 304 -91 14 -380 27 -445
19z m480 -1903 c0 -180 -15 -298 -52 -411 -61 -188 -172 -327 -313 -392 -42
-19 -67 -22 -155 -23 -98 0 -109 2 -159 30 -133 74 -202 232 -188 434 15 211
115 359 302 447 123 59 241 81 443 83 l122 1 0 -169z"/>
</g>
</svg>
